<?xml version="1.0" standalone="no"?>
<!DOCTYPE svg PUBLIC "-//W3C//DTD SVG 20010904//EN"
 "http://www.w3.org/TR/2001/REC-SVG-20010904/DTD/svg10.dtd">
<svg version="1.0" xmlns="http://www.w3.org/2000/svg"
 width="606.000000pt" height="204.000000pt" viewBox="0 0 606.000000 204.000000"
 preserveAspectRatio="xMidYMid meet">

<g transform="translate(0.000000,204.000000) scale(0.100000,-0.100000)"
fill="#000000" stroke="none">
<path d="M4342 1278 l3 -733 163 -3 162 -2 0 735 0 735 -165 0 -165 0 2 -732z"/>
<path d="M1240 1573 c-132 -16 -227 -60 -313 -141 -105 -101 -157 -225 -159
-379 -3 -309 220 -527 537 -526 152 1 324 57 418 135 l28 23 -53 60 c-29 34
-65 75 -79 92 l-26 31 -89 -35 c-110 -45 -210 -55 -279 -29 -45 18 -108 80
-118 117 -5 19 4 19 344 19 l349 0 0 88 c-1 319 -181 524 -480 544 -30 3 -66
3 -80 1z m123 -267 c40 -17 72 -51 91 -98 15 -35 15 -36 -7 -42 -33 -9 -345
-7 -351 2 -7 12 28 84 50 104 54 48 150 63 217 34z"/>
<path d="M2281 1565 c-163 -46 -294 -180 -345 -354 -20 -69 -21 -199 -1 -274
36 -140 142 -269 268 -328 69 -33 77 -34 187 -34 126 1 200 21 259 71 16 13
32 24 35 24 3 0 6 -27 6 -61 0 -103 -38 -154 -137 -184 -55 -17 -168 -19 -231
-5 -34 8 -133 50 -183 77 -4 2 -41 -51 -84 -119 -88 -139 -89 -127 20 -179
113 -54 205 -72 360 -72 155 0 247 18 346 68 63 32 149 116 178 173 49 96 51
122 51 669 l0 513 -160 0 -160 0 0 -42 0 -42 -32 32 c-56 53 -120 75 -228 79
-62 2 -113 -2 -149 -12z m255 -280 c90 -26 144 -107 144 -212 -1 -152 -126
-252 -268 -214 -162 44 -209 274 -78 388 20 18 49 35 64 39 15 3 32 7 37 9 22
7 54 4 101 -10z"/>
<path d="M587 1559 c-79 -19 -142 -66 -199 -149 -17 -24 -17 -23 -17 58 l-1
82 -160 0 -160 0 0 -505 0 -505 160 0 160 0 0 268 0 268 28 54 c37 75 88 101
212 108 l90 5 0 163 0 164 -37 -1 c-21 -1 -55 -5 -76 -10z"/>
<path d="M3498 1555 c-89 -18 -184 -64 -247 -121 l-51 -45 77 -90 c42 -49 80
-89 84 -89 4 0 11 5 14 10 13 20 109 62 174 76 116 24 222 -4 253 -66 16 -31
25 -110 14 -110 -3 0 -44 9 -93 21 -157 37 -305 26 -400 -32 -153 -94 -199
-322 -94 -465 94 -127 349 -157 515 -60 23 14 49 33 57 42 13 16 15 12 19 -32
l5 -49 153 -3 152 -3 0 339 c0 366 -4 398 -57 489 -31 54 -99 115 -162 147
-103 53 -270 69 -413 41z m277 -624 c42 -19 45 -22 39 -48 -29 -119 -155 -186
-259 -138 -77 37 -74 157 5 198 44 23 149 17 215 -12z"/>
<path d="M4810 1547 c0 -2 96 -219 213 -483 l214 -479 -75 -170 c-41 -93 -83
-189 -93 -212 l-18 -43 183 0 c183 0 183 0 194 24 6 13 113 259 237 547 125
288 256 588 291 666 35 79 64 145 64 148 0 3 -81 5 -180 5 l-181 0 -20 -47
c-18 -42 -194 -475 -221 -543 -8 -22 -22 7 -119 245 -61 149 -117 287 -126
308 l-15 37 -174 0 c-96 0 -174 -1 -174 -3z"/>
</g>
</svg>
