<svg version="1.0" xmlns="http://www.w3.org/2000/svg"
    width="226.000000pt" height="242.000000pt" viewBox="0 0 226.000000 242.000000"
    preserveAspectRatio="xMidYMid meet">
    <style>
        path { fill: black; }
        @media (prefers-color-scheme: dark) {
        path { fill: white; }
        }
    </style>

    <g transform="translate(0.000000,242.000000) scale(0.100000,-0.100000)" stroke="none">
    <path d="M523 2105 c-149 -40 -259 -152 -298 -300 -23 -88 -23 -1192 0 -1280
    40 -153 158 -271 310 -311 39 -11 181 -14 650 -14 651 0 669 1 762 55 58 35
    130 109 159 166 53 106 54 118 54 736 0 382 -4 590 -11 625 -35 166 -160 291
    -327 327 -84 18 -1231 14 -1299 -4z m1279 -76 c133 -28 225 -113 263 -241 14
    -48 15 -129 13 -649 l-3 -594 -27 -57 c-35 -76 -98 -142 -167 -175 l-56 -28
    -635 0 -635 0 -57 27 c-73 34 -137 98 -174 174 l-29 59 0 615 0 615 28 60 c46
    99 132 170 234 194 58 14 1181 13 1245 0z"/>
    <path d="M535 1818 c-3 -7 -4 -310 -3 -673 l3 -660 260 0 260 0 3 185 2 185
    98 -5 97 -5 94 -182 95 -183 219 0 c171 0 218 3 214 12 -2 7 -57 112 -120 232
    l-116 220 55 55 c131 132 176 337 112 509 -59 160 -189 272 -355 307 -93 20
    -911 22 -918 3z m865 -78 c145 -19 259 -102 321 -234 107 -228 -29 -499 -288
    -576 -24 -7 -43 -14 -43 -15 0 -2 41 -79 90 -173 50 -94 90 -174 90 -177 0 -3
    -17 -5 -37 -5 l-38 0 -95 183 -95 182 -162 3 -163 2 0 -185 0 -185 -35 0 -35
    0 0 219 0 220 268 3 267 3 57 28 c72 35 130 93 165 165 24 49 28 69 28 142 0
    76 -4 92 -33 152 -39 80 -102 139 -178 168 -51 19 -77 20 -429 20 l-375 0 0
    -560 0 -560 -35 0 -35 0 0 588 c0 324 3 592 7 595 10 11 699 8 783 -3z m52
    -156 c26 -8 62 -31 82 -50 110 -107 113 -268 7 -374 -75 -75 -104 -80 -432
    -80 l-279 0 0 -260 0 -260 -35 0 -35 0 0 520 0 520 323 0 c267 0 331 -3 369
    -16z m211 -854 l88 -170 -43 0 -43 0 -75 145 c-41 80 -76 149 -78 155 -3 7 43
    39 58 39 3 1 45 -76 93 -169z"/>
    <path d="M834 1541 c-2 -2 -4 -94 -4 -203 l0 -198 283 0 c317 0 333 3 394 73
    88 101 60 246 -61 310 -39 20 -53 21 -324 22 -156 0 -286 -2 -288 -4z m600
    -112 c45 -39 55 -84 30 -135 -35 -69 -57 -74 -321 -74 l-233 0 0 120 0 120
    245 0 244 0 35 -31z"/>
    </g>
</svg>
